<svg xmlns="http://www.w3.org/2000/svg" version="1.1" xmlns:xlink="http://www.w3.org/1999/xlink" width="512" height="512" x="0" y="0" viewBox="0 0 512 512" style="enable-background:new 0 0 512 512" xml:space="preserve" class=""><g><path d="M143.983 247.886h224.033c17.359 0 31.482-14.123 31.482-31.482V100.921c0-17.359-14.123-31.482-31.482-31.482h-97.441l-27.842-48.153c-6.364-11.006-17.307-17.318-30.02-17.318h-68.73c-17.359 0-31.482 14.123-31.482 31.482v180.954c0 17.359 14.123 31.482 31.482 31.482zM368.017 85.438c8.537 0 15.482 6.945 15.482 15.482v115.482c0 8.537-6.945 15.482-15.482 15.482H143.983c-8.537 0-15.482-6.945-15.482-15.482V85.439zM143.983 19.967h68.73c6.948 0 12.69 3.313 16.168 9.328l23.212 40.145H128.501V35.45c0-8.538 6.945-15.483 15.482-15.483zM62.761 347.214v-32.287a8 8 0 0 1 8-8H248v-22.45a8 8 0 0 1 16 0v22.45h177.239a8 8 0 0 1 8 8v32.287a8 8 0 0 1-16 0v-24.287H264v24.287a8 8 0 0 1-16 0v-24.287H78.761v24.287a8 8 0 0 1-16 0zm430.089 67.681h-43.848l-12.007-20.768c-3.738-6.463-10.427-10.322-17.893-10.322h-32.638c-10.56 0-19.15 8.591-19.15 19.151v85.927c0 10.56 8.591 19.15 19.15 19.15H492.85c10.56 0 19.15-8.591 19.15-19.15v-54.838c0-10.56-8.591-19.15-19.15-19.15zm-106.385-15.09h32.638c1.787 0 3.146.784 4.041 2.331l7.377 12.759h-47.206v-11.938a3.154 3.154 0 0 1 3.15-3.152zM496 488.883c0 1.708-1.442 3.15-3.15 3.15H386.465a3.153 3.153 0 0 1-3.15-3.15v-57.988H492.85c1.708 0 3.15 1.442 3.15 3.15zm-186.808-73.988h-43.848l-12.007-20.769c-3.737-6.463-10.427-10.321-17.893-10.321h-32.638c-10.56 0-19.15 8.591-19.15 19.15v85.928c0 10.56 8.591 19.15 19.15 19.15h106.385c10.56 0 19.15-8.591 19.15-19.15v-54.838c.002-10.56-8.589-19.15-19.149-19.15zm-106.384-15.09h32.638c1.787 0 3.147.784 4.041 2.33l7.377 12.76h-47.206v-11.939a3.152 3.152 0 0 1 3.15-3.151zm109.535 89.078c0 1.708-1.442 3.15-3.15 3.15H202.808a3.153 3.153 0 0 1-3.15-3.15v-57.988h109.535a3.153 3.153 0 0 1 3.15 3.15zm-186.809-73.988H81.688l-12.007-20.769c-3.737-6.463-10.427-10.321-17.893-10.321H19.15c-10.56 0-19.15 8.591-19.15 19.15v85.928c0 10.56 8.591 19.15 19.15 19.15h106.384c10.561 0 19.151-8.591 19.151-19.15v-54.838c.001-10.56-8.59-19.15-19.151-19.15zM19.15 399.805h32.638c1.787 0 3.147.784 4.041 2.33l7.377 12.76H16v-11.939a3.154 3.154 0 0 1 3.15-3.151zm109.536 89.078a3.154 3.154 0 0 1-3.151 3.15H19.15a3.153 3.153 0 0 1-3.15-3.15v-57.988h109.534a3.154 3.154 0 0 1 3.151 3.15v54.838z" fill="#ffffff" opacity="1" data-original="#000000" class=""></path></g></svg>